<svg width="143" height="41" viewBox="0 0 143 41" fill="none" xmlns="http://www.w3.org/2000/svg">
<path d="M3.90039 16.4355H13.7773V19H0.015625V16.918L9.5752 3.10547H0.0791016V0.515625H13.4727V2.54688L3.90039 16.4355ZM29.3693 14.6963H22.2092L20.7111 19H17.3723L24.3547 0.515625H27.2365L34.2316 19H30.8801L29.3693 14.6963ZM23.1105 12.1064H28.468L25.7893 4.43848L23.1105 12.1064ZM42.8031 0.515625L48.1352 14.6836L53.4545 0.515625H57.6059V19H54.4066V12.9062L54.724 4.75586L49.265 19H46.9672L41.5209 4.76855L41.8383 12.9062V19H38.6391V0.515625H42.8031ZM74.5182 10.748H66.9264V16.4355H75.8004V19H63.7145V0.515625H75.7115V3.10547H66.9264V8.20898H74.5182V10.748ZM87.5076 11.8779H83.9275V19H80.7156V0.515625H87.2156C89.3484 0.515625 90.9946 0.993815 92.1541 1.9502C93.3136 2.90658 93.8934 4.29036 93.8934 6.10156C93.8934 7.33724 93.5929 8.37402 92.992 9.21191C92.3995 10.0413 91.5701 10.6803 90.5037 11.1289L94.6551 18.835V19H91.2146L87.5076 11.8779ZM83.9275 9.30078H87.2283C88.3117 9.30078 89.158 9.02995 89.7674 8.48828C90.3768 7.93815 90.6814 7.18913 90.6814 6.24121C90.6814 5.25098 90.3979 4.48503 89.8309 3.94336C89.2723 3.40169 88.4344 3.1224 87.3172 3.10547H83.9275V9.30078ZM104.547 11.0146L102.452 13.2363V19H99.2402V0.515625H102.452V9.18652L104.229 6.99023L109.638 0.515625H113.522L106.654 8.7041L113.916 19H110.107L104.547 11.0146ZM121.332 19H118.133V0.515625H121.332V19ZM142.244 19H139.032L130.792 5.88574V19H127.58V0.515625H130.792L139.057 13.6807V0.515625H142.244V19Z" fill="#2176C7"/>
<path d="M9.0625 40H7.55469V34.7422H1.82031V40H0.320312V28.625H1.82031V33.5156H7.55469V28.625H9.0625V40ZM16.7188 40C16.6354 39.8333 16.5677 39.5365 16.5156 39.1094C15.8438 39.8073 15.0417 40.1562 14.1094 40.1562C13.276 40.1562 12.5911 39.9219 12.0547 39.4531C11.5234 38.9792 11.2578 38.3802 11.2578 37.6562C11.2578 36.776 11.5911 36.0938 12.2578 35.6094C12.9297 35.1198 13.8724 34.875 15.0859 34.875H16.4922V34.2109C16.4922 33.7057 16.3411 33.3047 16.0391 33.0078C15.737 32.7057 15.2917 32.5547 14.7031 32.5547C14.1875 32.5547 13.7552 32.6849 13.4062 32.9453C13.0573 33.2057 12.8828 33.5208 12.8828 33.8906H11.4297C11.4297 33.4688 11.5781 33.0625 11.875 32.6719C12.1771 32.276 12.5833 31.9635 13.0938 31.7344C13.6094 31.5052 14.1745 31.3906 14.7891 31.3906C15.763 31.3906 16.526 31.6354 17.0781 32.125C17.6302 32.6094 17.9167 33.2786 17.9375 34.1328V38.0234C17.9375 38.7995 18.0365 39.4167 18.2344 39.875V40H16.7188ZM14.3203 38.8984C14.7734 38.8984 15.2031 38.7812 15.6094 38.5469C16.0156 38.3125 16.3099 38.0078 16.4922 37.6328V35.8984H15.3594C13.5885 35.8984 12.7031 36.4167 12.7031 37.4531C12.7031 37.9062 12.8542 38.2604 13.1562 38.5156C13.4583 38.7708 13.8464 38.8984 14.3203 38.8984ZM26.3594 32.7188H23.5234V40H22.0781V32.7188H19.2969V31.5469H26.3594V32.7188ZM34.2266 31.5469V40H32.7734V36.7109H30.5938L28.6016 40H27.0391L29.1641 36.4922C28.6224 36.2943 28.2057 35.9896 27.9141 35.5781C27.6276 35.1615 27.4844 34.6771 27.4844 34.125C27.4844 33.3542 27.7734 32.7344 28.3516 32.2656C28.9297 31.7917 29.7031 31.5521 30.6719 31.5469H34.2266ZM28.9375 34.1406C28.9375 34.5521 29.0781 34.8854 29.3594 35.1406C29.6406 35.3906 30.013 35.5182 30.4766 35.5234H32.7734V32.7188H30.6953C30.1589 32.7188 29.7318 32.8516 29.4141 33.1172C29.0964 33.3776 28.9375 33.7188 28.9375 34.1406ZM43.2891 36.3281H42.2734V40H40.8281V36.3281H39.8125L37.4453 40H35.6172L38.6406 35.625L35.9062 31.5469H37.6562L39.8359 35.0469H40.8281V31.5469H42.2734V35.0469H43.2578L45.4531 31.5469H47.2031L44.4609 35.6328L47.4844 40H45.6562L43.2891 36.3281ZM55.7031 40H54.2578V36.3906H50.375V40H48.9219V31.5469H50.375V35.2109H54.2578V31.5469H55.7031V40ZM59.6094 34.4609H61.8047C62.763 34.4714 63.5208 34.7214 64.0781 35.2109C64.6354 35.7005 64.9141 36.3646 64.9141 37.2031C64.9141 38.0469 64.6276 38.724 64.0547 39.2344C63.4818 39.7448 62.7109 40 61.7422 40H58.1641V31.5469H59.6094V34.4609ZM67.9297 40H66.4766V31.5469H67.9297V40ZM59.6094 35.6406V38.8203H61.7578C62.2995 38.8203 62.7188 38.6823 63.0156 38.4062C63.3125 38.125 63.4609 37.7422 63.4609 37.2578C63.4609 36.7891 63.3151 36.4062 63.0234 36.1094C62.737 35.8073 62.3333 35.651 61.8125 35.6406H59.6094ZM73.9609 40.1562C72.8151 40.1562 71.8828 39.7812 71.1641 39.0312C70.4453 38.276 70.0859 37.2682 70.0859 36.0078V35.7422C70.0859 34.9036 70.2448 34.1562 70.5625 33.5C70.8854 32.8385 71.3333 32.3229 71.9062 31.9531C72.4844 31.5781 73.1094 31.3906 73.7812 31.3906C74.8802 31.3906 75.7344 31.7526 76.3438 32.4766C76.9531 33.2005 77.2578 34.237 77.2578 35.5859V36.1875H71.5312C71.5521 37.0208 71.7943 37.6953 72.2578 38.2109C72.7266 38.7214 73.3203 38.9766 74.0391 38.9766C74.5495 38.9766 74.9818 38.8724 75.3359 38.6641C75.6901 38.4557 76 38.1797 76.2656 37.8359L77.1484 38.5234C76.4401 39.612 75.3776 40.1562 73.9609 40.1562ZM73.7812 32.5781C73.1979 32.5781 72.7083 32.7917 72.3125 33.2188C71.9167 33.6406 71.6719 34.2344 71.5781 35H75.8125V34.8906C75.7708 34.1562 75.5729 33.5885 75.2188 33.1875C74.8646 32.7812 74.3854 32.5781 73.7812 32.5781ZM89.8203 40H88.375V32.7422H84.4844V40H83.0312V31.5469H89.8203V40ZM91.7578 35.6953C91.7578 34.8672 91.9193 34.1224 92.2422 33.4609C92.5703 32.7995 93.0234 32.2891 93.6016 31.9297C94.1849 31.5703 94.849 31.3906 95.5938 31.3906C96.7448 31.3906 97.6745 31.7891 98.3828 32.5859C99.0964 33.3828 99.4531 34.4427 99.4531 35.7656V35.8672C99.4531 36.6901 99.2943 37.4297 98.9766 38.0859C98.6641 38.737 98.2135 39.2448 97.625 39.6094C97.0417 39.974 96.3698 40.1562 95.6094 40.1562C94.4635 40.1562 93.5339 39.7578 92.8203 38.9609C92.112 38.1641 91.7578 37.1094 91.7578 35.7969V35.6953ZM93.2109 35.8672C93.2109 36.8047 93.4271 37.5573 93.8594 38.125C94.2969 38.6927 94.8802 38.9766 95.6094 38.9766C96.3438 38.9766 96.9271 38.6901 97.3594 38.1172C97.7917 37.5391 98.0078 36.7318 98.0078 35.6953C98.0078 34.7682 97.7865 34.0182 97.3438 33.4453C96.9062 32.8672 96.3229 32.5781 95.5938 32.5781C94.8802 32.5781 94.3047 32.862 93.8672 33.4297C93.4297 33.9974 93.2109 34.8099 93.2109 35.8672ZM107.375 32.7188H104.539V40H103.094V32.7188H100.312V31.5469H107.375V32.7188ZM108.07 35.6953C108.07 34.8672 108.232 34.1224 108.555 33.4609C108.883 32.7995 109.336 32.2891 109.914 31.9297C110.497 31.5703 111.161 31.3906 111.906 31.3906C113.057 31.3906 113.987 31.7891 114.695 32.5859C115.409 33.3828 115.766 34.4427 115.766 35.7656V35.8672C115.766 36.6901 115.607 37.4297 115.289 38.0859C114.977 38.737 114.526 39.2448 113.938 39.6094C113.354 39.974 112.682 40.1562 111.922 40.1562C110.776 40.1562 109.846 39.7578 109.133 38.9609C108.424 38.1641 108.07 37.1094 108.07 35.7969V35.6953ZM109.523 35.8672C109.523 36.8047 109.74 37.5573 110.172 38.125C110.609 38.6927 111.193 38.9766 111.922 38.9766C112.656 38.9766 113.24 38.6901 113.672 38.1172C114.104 37.5391 114.32 36.7318 114.32 35.6953C114.32 34.7682 114.099 34.0182 113.656 33.4453C113.219 32.8672 112.635 32.5781 111.906 32.5781C111.193 32.5781 110.617 32.862 110.18 33.4297C109.742 33.9974 109.523 34.8099 109.523 35.8672ZM124.383 31.5469V40H122.93V32.7422H120.055L119.883 35.9062C119.789 37.3594 119.544 38.3984 119.148 39.0234C118.758 39.6484 118.135 39.974 117.281 40H116.703V38.7266L117.117 38.6953C117.586 38.6432 117.922 38.3724 118.125 37.8828C118.328 37.3932 118.458 36.487 118.516 35.1641L118.672 31.5469H124.383ZM129.336 36.3984H128.281V40H126.828V31.5469H128.281V35.125H129.227L132.07 31.5469H133.82L130.477 35.6094L134.102 40H132.266L129.336 36.3984ZM140.812 31.5469H142.258V40H140.812V33.8359L136.914 40H135.469V31.5469H136.914V37.7188L140.812 31.5469Z" fill="#B8B7BC"/>
</svg>
