<svg width="32" height="32" viewBox="0 0 32 32" fill="none" xmlns="http://www.w3.org/2000/svg">
<circle cx="16" cy="16" r="16" fill="url(#paint0_linear)"/>
<path d="M21.2646 9.6001H11.5354C10.4369 9.6001 9.59998 10.437 9.59998 11.5355V21.2647C9.59998 22.3632 10.4369 23.2001 11.5354 23.2001H21.2646C22.3631 23.2001 23.2 22.3632 23.2 21.2647V11.5355C23.2 10.437 22.3631 9.6001 21.2646 9.6001ZM16.4 20.4801C18.6492 20.4801 20.48 18.7016 20.48 16.557C20.48 16.1909 20.4277 15.7724 20.3231 15.4586H21.4738V21.0032C21.4738 21.2647 21.2646 21.5263 20.9507 21.5263H11.8492C11.5877 21.5263 11.3261 21.317 11.3261 21.0032V15.4063H12.5292C12.4246 15.7724 12.3723 16.1386 12.3723 16.5047C12.32 18.7016 14.1507 20.4801 16.4 20.4801ZM16.4 18.9109C14.9354 18.9109 13.7846 17.7601 13.7846 16.3478C13.7846 14.9355 14.9354 13.7847 16.4 13.7847C17.8646 13.7847 19.0154 14.9355 19.0154 16.3478C19.0154 17.8124 17.8646 18.9109 16.4 18.9109ZM21.4215 13.3139C21.4215 13.6278 21.16 13.8893 20.8461 13.8893H19.3815C19.0677 13.8893 18.8061 13.6278 18.8061 13.3139V11.9016C18.8061 11.5878 19.0677 11.3263 19.3815 11.3263H20.8461C21.16 11.3263 21.4215 11.5878 21.4215 11.9016V13.3139Z" fill="white"/>
<defs>
<linearGradient id="paint0_linear" x1="6.8" y1="28.4" x2="28" y2="6.4" gradientUnits="userSpaceOnUse">
<stop stop-color="#EEA054"/>
<stop offset="0.502762" stop-color="#D64763"/>
<stop offset="1" stop-color="#B62A99"/>
</linearGradient>
</defs>
</svg>
