<svg width="64" height="64" viewBox="0 0 64 64" fill="none" xmlns="http://www.w3.org/2000/svg">
<path d="M62.6666 13.3334H52.8266L51.264 10.2108C50.5814 8.848 49.2106 8 47.6854 8H41.5494L37.04 6.49863C34.7254 5.72525 32.3146 5.33325 29.872 5.33325H4C1.79463 5.33325 0 7.12788 0 9.33325V20C0 22.2054 1.79463 24 4 24H10.4426L8.096 39.2586L3.2 42.9334C3.18138 42.9468 3.17863 42.9708 3.16263 42.9868C2.976 43.1388 2.83725 43.3334 2.75463 43.5654C2.73863 43.608 2.73862 43.648 2.728 43.6934C2.704 43.7948 2.66663 43.8908 2.66663 44V54.6666C2.66663 56.872 4.46125 58.6666 6.66663 58.6666H28C30.2054 58.6666 32 56.872 32 54.6666V44C32 43.968 31.984 43.9414 31.9814 43.9094C31.9734 43.8108 31.952 43.7174 31.9228 43.624C31.9041 43.5574 31.8908 43.4934 31.8614 43.432C31.8188 43.344 31.76 43.2694 31.6987 43.192C31.6587 43.1414 31.6294 43.0854 31.5841 43.0426C31.4935 42.9546 31.3841 42.8906 31.2695 42.8293C31.2349 42.8106 31.2081 42.7839 31.1735 42.7706L22.8055 39.184L23.7095 33.3014C23.8081 33.32 23.9041 33.3334 24.0001 33.3334C24.6001 33.3334 25.1415 32.9308 25.2908 32.3228L26.6241 26.9894C26.8027 26.2748 26.3681 25.552 25.6535 25.3734C25.4001 25.3068 25.1521 25.344 24.9229 25.4188L25.1414 24H29.872C32.312 24 34.7226 23.608 37.04 22.8346L41.5494 21.3333H47.6854C49.2108 21.3333 50.5814 20.4853 51.264 19.1199L52.824 15.9999H62.6666C63.4026 15.9999 64 15.4025 64 14.6665C64 13.9305 63.4026 13.3334 62.6666 13.3334ZM29.3334 54.6666C29.3334 55.4026 28.736 56 28 56H6.66663C5.93062 56 5.33325 55.4026 5.33325 54.6666V45.3333H29.3333V54.6666H29.3334ZM24.1706 42.6666H8L10.1334 41.064C10.4134 40.856 10.5974 40.544 10.6508 40.2L13.144 24H22.4454L20.016 39.7946C19.9226 40.3973 20.248 40.984 20.808 41.224L24.1706 42.6666ZM40 19.04L36.1974 20.3066C34.1548 20.9893 32.0267 21.3333 29.872 21.3333H23.9974H11.9974H4C3.264 21.3333 2.66663 20.7359 2.66663 19.9999V9.33338C2.66663 8.59738 3.264 8 4 8V7.99738H29.872C32.0266 7.99738 34.1546 8.344 36.1974 9.024L40 10.2934V19.04ZM48.8774 17.9306C48.6508 18.384 48.1948 18.6666 47.6854 18.6666H42.6694V10.6666H47.6854C48.1948 10.6666 48.6508 10.9493 48.8774 11.4026L50.5094 14.6666L48.8774 17.9306Z" fill="#2176C7"/>
<path d="M14.6654 10.6666H6.66541C5.92941 10.6666 5.33203 11.264 5.33203 12C5.33203 12.736 5.92941 13.3334 6.66541 13.3334H14.6654C15.4014 13.3334 15.9988 12.736 15.9988 12C15.9988 11.264 15.4014 10.6666 14.6654 10.6666Z" fill="#2176C7"/>
<path d="M14.6654 16H6.66541C5.92941 16 5.33203 16.5974 5.33203 17.3334C5.33203 18.0694 5.92941 18.6667 6.66541 18.6667H14.6654C15.4014 18.6667 15.9988 18.0694 15.9988 17.3334C15.9988 16.5974 15.4014 16 14.6654 16Z" fill="#2176C7"/>
</svg>
