<svg width="64" height="64" viewBox="0 0 64 64" fill="none" xmlns="http://www.w3.org/2000/svg">
<g clip-path="url(#clip0_588:128)">
<path d="M49.3319 21.3253C50.0786 21.3253 50.6653 21.9386 50.6653 22.6586C50.6653 23.4053 50.0786 23.992 49.3319 23.992H17.8919L16.5586 22.6586L17.8919 21.3253H49.3319Z" fill="#2176C7"/>
<path d="M46.1074 42.6586L47.4408 41.3253L46.1074 39.9919H48.6674C49.4141 39.9919 50.0008 40.6053 50.0008 41.3253C50.0008 42.0719 49.4141 42.6586 48.6674 42.6586H46.1074Z" fill="#2176C7"/>
<path d="M47.4407 41.3253L46.1073 42.6586H14.6673C13.9207 42.6586 13.334 42.0719 13.334 41.3253C13.334 40.6053 13.9207 39.9919 14.6673 39.9919H46.1073L47.4407 41.3253Z" fill="#2176C7"/>
<path d="M50.2667 40.392C50.8 40.9253 50.8 41.752 50.2667 42.2853L42.2667 50.2853C42.0267 50.5253 41.68 50.6587 41.3333 50.6587C40.9867 50.6587 40.64 50.5253 40.4 50.2853C39.8667 49.752 39.8667 48.9253 40.4 48.392L46.1067 42.6587H48.6667C49.4133 42.6587 50 42.072 50 41.3253C50 40.6053 49.4133 39.992 48.6667 39.992H46.1067L40.4 34.2854C39.8667 33.752 39.8667 32.9254 40.4 32.392C40.9067 31.8854 41.76 31.8854 42.2667 32.392L50.2667 40.392Z" fill="#2176C7"/>
<path d="M17.8933 21.3253L16.56 22.6586L17.8933 23.992H15.3333C14.5867 23.992 14 23.4053 14 22.6586C14 21.9386 14.5867 21.3253 15.3333 21.3253H17.8933Z" fill="#2176C7"/>
<path d="M13.734 21.7253L21.734 13.7253C22.2406 13.2187 23.094 13.2187 23.6007 13.7253C24.134 14.2587 24.134 15.0853 23.6007 15.6187L17.894 21.3253H15.334C14.5873 21.3253 14.0007 21.9387 14.0007 22.6587C14.0007 23.4053 14.5873 23.992 15.334 23.992H17.894L23.6007 29.7253C24.134 30.232 24.134 31.0853 23.6007 31.6187C23.3607 31.8587 23.014 31.992 22.6673 31.992C22.3207 31.992 21.974 31.8587 21.734 31.6187L13.734 23.6187C13.2007 23.0853 13.2007 22.2587 13.734 21.7253Z" fill="#2176C7"/>
<path d="M57.3333 2.65867H6.66667C4.45333 2.65867 2.66667 4.472 2.66667 6.65867V57.3253C2.66667 59.5387 4.45333 61.3253 6.66667 61.3253H57.3333C59.5467 61.3253 61.3333 59.5387 61.3333 57.3253V6.65867C61.3333 4.472 59.5467 2.65867 57.3333 2.65867ZM57.3333 63.992H6.66667C2.98667 63.992 0 61.0053 0 57.3253V6.65867C0 3.00534 2.98667 -0.00799561 6.66667 -0.00799561H57.3333C61.0133 -0.00799561 64 3.00534 64 6.65867V57.3253C64 61.0053 61.0133 63.992 57.3333 63.992Z" fill="#2176C7"/>
</g>
<defs>
<clipPath id="clip0_588:128">
<rect width="64" height="64" fill="white"/>
</clipPath>
</defs>
</svg>
