<svg width="64" height="64" viewBox="0 0 64 64" fill="none" xmlns="http://www.w3.org/2000/svg">
<g clip-path="url(#clip0_590:171)">
<path d="M24.9694 55.0773C18.7964 53.1579 14.6489 47.5207 14.6489 41.0499C14.6489 37.887 15.6391 34.8736 17.5125 32.3355C17.5552 32.2776 17.5938 32.2143 17.626 32.1499C17.9356 31.5309 17.6842 30.7791 17.0651 30.4696C16.5048 30.189 15.8346 30.3692 15.4829 30.8647C13.2977 33.8333 12.1426 37.3549 12.1426 41.0499C12.1426 44.7917 13.3241 48.3495 15.5594 51.3382C17.7199 54.227 20.7974 56.4049 24.2252 57.4707C24.3492 57.5093 24.4745 57.5276 24.5977 57.5276C25.132 57.5276 25.6271 57.1831 25.794 56.6461C25.9996 55.9851 25.6304 55.2828 24.9694 55.0773Z" fill="#2176C7"/>
<path d="M57.093 29.2851C57.093 26.8996 56.3496 24.6269 54.9427 22.7102L47.0097 10.9336C46.7767 10.5878 46.3872 10.3806 45.9703 10.3806C45.5533 10.3806 45.1638 10.5878 44.9309 10.9336L41.588 15.896L31.2522 0.553047C31.0194 0.207283 30.6297 0 30.2129 0C29.7961 0 29.4065 0.207283 29.1736 0.553047L11.431 26.8911C8.47065 30.9141 6.90625 35.6858 6.90625 40.6933C6.90625 53.5446 17.3616 64 30.2129 64C43.0642 64 53.5196 53.5446 53.5196 40.6933C53.5196 39.6675 53.451 38.6397 53.3178 37.628C55.631 35.5882 57.093 32.6044 57.093 29.2851ZM45.9703 13.8769L52.8636 24.11C52.8774 24.1313 52.8919 24.1522 52.9071 24.1728C54.0058 25.6607 54.5866 27.4285 54.5866 29.285C54.5866 34.036 50.7214 37.9012 45.9703 37.9012C41.2193 37.9012 37.3541 34.036 37.3541 29.285C37.3541 27.4285 37.9349 25.6607 39.0336 24.1728C39.0481 24.1531 39.062 24.133 39.0754 24.1124L42.6249 18.8432C42.6315 18.8335 42.6382 18.824 42.6445 18.8141L45.9703 13.8769ZM51.013 40.6933C51.013 52.1627 41.682 61.4936 30.2128 61.4936C18.7434 61.4936 9.41257 52.1627 9.41257 40.6933C9.41257 36.2138 10.8149 31.946 13.4682 28.3515C13.4834 28.3311 13.4981 28.3096 13.5122 28.2877L30.2129 3.49624L40.0771 18.1391L36.9978 22.7104C35.5911 24.6269 34.8477 26.8998 34.8477 29.2851C34.8477 35.4182 39.8373 40.4077 45.9703 40.4077C47.7636 40.4077 49.4589 39.9805 50.9605 39.2234C50.9947 39.7122 51.013 40.203 51.013 40.6933Z" fill="#2176C7"/>
<path d="M41.5514 28.9795C41.5514 28.3723 41.6751 27.7863 41.9189 27.2378C42.2002 26.6053 41.9153 25.8646 41.2829 25.5835C40.6504 25.3027 39.9099 25.587 39.6287 26.2195C39.2413 27.0908 39.0449 28.0193 39.0449 28.9795C39.0449 31.254 40.1748 33.3682 42.0673 34.6344C42.2814 34.7777 42.5235 34.8461 42.7631 34.8461C43.1674 34.8461 43.5642 34.6508 43.8058 34.2898C44.1906 33.7144 44.0364 32.9361 43.4611 32.5512C42.2653 31.751 41.5514 30.4158 41.5514 28.9795Z" fill="#2176C7"/>
</g>
<defs>
<clipPath id="clip0_590:171">
<rect width="64" height="64" fill="white"/>
</clipPath>
</defs>
</svg>
