<svg width="64" height="64" viewBox="0 0 64 64" fill="none" xmlns="http://www.w3.org/2000/svg">
<g clip-path="url(#clip0_590:184)">
<path d="M55.4675 61.333H12.8005C10.2552 61.3303 7.81498 60.318 6.0152 58.5183C4.21542 56.7185 3.20315 54.2782 3.2005 51.733V43.34C0.900054 38.9756 -0.194915 34.0767 0.0284532 29.1482C0.251821 24.2197 1.78545 19.44 4.47125 15.3016C7.15706 11.1632 10.8979 7.81588 15.3082 5.60469C19.7184 3.39349 24.6386 2.3984 29.5615 2.72197C30.9935 2.80997 32.4145 3.01897 33.8115 3.34497C34.0869 3.40942 34.3255 3.58064 34.4747 3.82097C34.6238 4.0613 34.6715 4.35104 34.607 4.62647C34.5426 4.9019 34.3713 5.14044 34.131 5.28963C33.8907 5.43881 33.6009 5.48642 33.3255 5.42197C32.0455 5.12297 30.7415 4.93197 29.4285 4.85097C24.8499 4.54889 20.2742 5.4826 16.1801 7.55444C12.0859 9.62628 8.62358 12.7601 6.15529 16.6283C3.68699 20.4964 2.30337 24.9567 2.14913 29.5426C1.99488 34.1286 3.07569 38.6717 5.2785 42.697C5.4305 42.976 5.4505 43.308 5.3335 43.604V51.734C5.33588 53.7135 6.12338 55.6113 7.52323 57.011C8.92307 58.4106 10.821 59.1979 12.8005 59.2H55.4675V56.683C55.3861 56.6453 55.309 56.5991 55.2375 56.545L49.0085 51.563C48.1449 50.8776 47.5823 49.8828 47.44 48.7895C47.2978 47.6962 47.587 46.5905 48.2465 45.707C52.0428 40.6218 53.8154 34.308 53.2205 27.99C53.1905 27.647 53.1485 27.308 53.1075 26.98C53.0787 26.7024 53.1598 26.4246 53.3334 26.2061C53.5071 25.9876 53.7594 25.8458 54.0363 25.8112C54.3132 25.7765 54.5927 25.8517 54.8148 26.0207C55.0369 26.1896 55.184 26.4389 55.2245 26.715C55.2695 27.069 55.3135 27.433 55.3445 27.798C55.9864 34.6402 54.0657 41.4771 49.9545 46.984C49.6273 47.4254 49.4852 47.977 49.5584 48.5216C49.6316 49.0661 49.9144 49.5606 50.3465 49.9L56.4895 54.812C56.826 54.9946 57.107 55.2648 57.3025 55.594C57.4981 55.9231 57.6011 56.2991 57.6005 56.682V59.2C57.5997 59.7654 57.3747 60.3075 56.9749 60.7074C56.575 61.1072 56.033 61.3322 55.4675 61.333Z" fill="#2176C7"/>
<path d="M54.1676 27.9149C53.8676 27.9149 53.5826 27.7899 53.3806 27.5689L32.7826 5.1049C32.5939 4.8959 32.4954 4.62078 32.5087 4.33951C32.522 4.05824 32.646 3.79363 32.8535 3.60335C33.0611 3.41308 33.3354 3.31256 33.6168 3.32371C33.8982 3.33487 34.1637 3.45679 34.3556 3.6629L54.9536 26.1269C55.0935 26.2795 55.1859 26.4695 55.2197 26.6738C55.2535 26.8781 55.2271 27.0878 55.1438 27.2773C55.0605 27.4668 54.9238 27.628 54.7505 27.7412C54.5771 27.8545 54.3746 27.9148 54.1676 27.9149ZM62.9346 61.3329C62.6519 61.3326 62.3809 61.2202 62.1811 61.0204C61.9812 60.8205 61.8688 60.5495 61.8686 60.2669V57.0669H56.5346C56.2516 57.0669 55.9802 56.9545 55.7801 56.7544C55.58 56.5543 55.4676 56.2829 55.4676 55.9999C55.4676 55.7169 55.58 55.4455 55.7801 55.2454C55.9802 55.0453 56.2516 54.9329 56.5346 54.9329H62.9346C63.0747 54.9329 63.2134 54.9605 63.3429 55.0141C63.4723 55.0677 63.59 55.1463 63.689 55.2454C63.7881 55.3445 63.8667 55.4621 63.9203 55.5916C63.974 55.721 64.0016 55.8598 64.0016 55.9999V60.2669C64.0016 60.407 63.974 60.5457 63.9203 60.6751C63.8667 60.8045 63.7881 60.922 63.689 61.021C63.5899 61.12 63.4723 61.1985 63.3428 61.252C63.2134 61.3056 63.0746 61.333 62.9346 61.3329ZM27.7346 48.5329C17.7216 48.5329 9.60156 40.4149 9.60156 30.3999C9.60156 20.3849 17.7206 12.2669 27.7346 12.2669C37.7496 12.2669 45.8686 20.3849 45.8686 30.3999C45.8576 40.4099 37.7456 48.5219 27.7346 48.5329ZM27.7346 14.3999C18.8986 14.3999 11.7346 21.5629 11.7346 30.3999C11.7346 39.2369 18.8986 46.3999 27.7346 46.3999C36.5716 46.3999 43.7346 39.2369 43.7346 30.3999C43.7246 21.5679 36.5676 14.4099 27.7346 14.3999Z" fill="#2176C7"/>
<path d="M44.8016 31.467H10.6686C10.3856 31.467 10.1142 31.3546 9.91408 31.1545C9.71398 30.9544 9.60156 30.683 9.60156 30.4C9.60156 30.117 9.71398 29.8456 9.91408 29.6455C10.1142 29.4454 10.3856 29.333 10.6686 29.333H44.8016C45.0845 29.333 45.3559 29.4454 45.556 29.6455C45.7561 29.8456 45.8686 30.117 45.8686 30.4C45.8686 30.683 45.7561 30.9544 45.556 31.1545C45.3559 31.3546 45.0845 31.467 44.8016 31.467ZM35.2016 20.8H20.2686C19.9914 20.7915 19.7284 20.6754 19.5353 20.4763C19.3422 20.2773 19.2342 20.0108 19.2342 19.7335C19.2342 19.4562 19.3422 19.1897 19.5353 18.9906C19.7284 18.7916 19.9914 18.6755 20.2686 18.667H35.2016C35.4788 18.6755 35.7418 18.7916 35.9348 18.9906C36.1279 19.1897 36.2359 19.4562 36.2359 19.7335C36.2359 20.0108 36.1279 20.2773 35.9348 20.4763C35.7418 20.6754 35.4788 20.7915 35.2016 20.8Z" fill="#2176C7"/>
<path d="M37.3329 27.2H18.1329C17.8501 27.1997 17.579 27.0872 17.3791 26.8871C17.1792 26.687 17.0669 26.4158 17.0669 26.133V21.867C17.0625 21.7242 17.0869 21.582 17.1385 21.4487C17.1901 21.3155 17.268 21.194 17.3675 21.0915C17.4669 20.9889 17.586 20.9074 17.7176 20.8517C17.8491 20.796 17.9905 20.7673 18.1334 20.7673C18.2763 20.7673 18.4177 20.796 18.5493 20.8517C18.6808 20.9074 18.7999 20.9889 18.8993 21.0915C18.9988 21.194 19.0767 21.3155 19.1283 21.4487C19.1799 21.582 19.2043 21.7242 19.1999 21.867V25.067H36.2669V21.867C36.2625 21.7242 36.2869 21.582 36.3385 21.4487C36.3901 21.3155 36.468 21.194 36.5675 21.0915C36.6669 20.9889 36.786 20.9074 36.9175 20.8517C37.0491 20.796 37.1905 20.7673 37.3334 20.7673C37.4763 20.7673 37.6177 20.796 37.7493 20.8517C37.8808 20.9074 37.9999 20.9889 38.0993 21.0915C38.1988 21.194 38.2767 21.3155 38.3283 21.4487C38.3799 21.582 38.4043 21.7242 38.3999 21.867V26.133C38.3999 26.416 38.2875 26.6874 38.0874 26.8875C37.8873 27.0876 37.6159 27.2 37.3329 27.2Z" fill="#2176C7"/>
<path d="M20.2685 22.9329H18.1345C17.8573 22.9245 17.5943 22.8084 17.4012 22.6093C17.2081 22.4102 17.1002 22.1438 17.1002 21.8664C17.1002 21.5891 17.2081 21.3227 17.4012 21.1236C17.5943 20.9245 17.8573 20.8084 18.1345 20.7999H19.2015V19.7329C19.21 19.4557 19.3261 19.1927 19.5251 18.9997C19.7242 18.8066 19.9907 18.6986 20.268 18.6986C20.5453 18.6986 20.8118 18.8066 21.0108 18.9997C21.2099 19.1927 21.326 19.4557 21.3345 19.7329V21.8669C21.3345 22.1497 21.2222 22.4208 21.0223 22.6207C20.8224 22.8206 20.5512 22.9329 20.2685 22.9329ZM37.3345 22.9329H35.2015C35.0614 22.9331 34.9227 22.9056 34.7932 22.8521C34.6638 22.7986 34.5462 22.7201 34.4471 22.6211C34.348 22.5221 34.2694 22.4045 34.2157 22.2751C34.1621 22.1457 34.1345 22.007 34.1345 21.8669V19.7329C34.1345 19.45 34.2469 19.1786 34.447 18.9785C34.6471 18.7784 34.9185 18.6659 35.2015 18.6659C35.4845 18.6659 35.7559 18.7784 35.956 18.9785C36.1561 19.1786 36.2685 19.45 36.2685 19.7329V20.7999H37.3345C37.4773 20.7956 37.6195 20.8199 37.7527 20.8716C37.886 20.9232 38.0074 21.001 38.11 21.1005C38.2126 21.2 38.2941 21.319 38.3498 21.4506C38.4055 21.5822 38.4342 21.7236 38.4342 21.8664C38.4342 22.0093 38.4055 22.1507 38.3498 22.2823C38.2941 22.4139 38.2126 22.5329 38.11 22.6324C38.0074 22.7319 37.886 22.8097 37.7527 22.8613C37.6195 22.913 37.4773 22.9373 37.3345 22.9329ZM53.3345 27.0079C53.0517 27.0077 52.7805 26.8951 52.5807 26.6951C52.3808 26.495 52.2685 26.2238 52.2685 25.9409V22.0509C52.2678 20.8031 51.8301 19.5948 51.0315 18.6359L43.1275 9.14995C42.8276 8.78947 42.452 8.49952 42.0273 8.30075C41.6027 8.10198 41.1394 7.99928 40.6705 7.99995H35.9055C35.6283 7.99146 35.3653 7.87537 35.1722 7.67629C34.9791 7.47721 34.8712 7.21078 34.8712 6.93345C34.8712 6.65612 34.9791 6.38968 35.1722 6.1906C35.3653 5.99152 35.6283 5.87544 35.9055 5.86695H40.6705C41.4525 5.86598 42.225 6.03745 42.9332 6.36914C43.6413 6.70083 44.2676 7.18458 44.7675 7.78595L52.6715 17.2699C53.7881 18.6127 54.4001 20.3036 54.4015 22.0499V25.9409C54.4015 26.2239 54.2891 26.4953 54.089 26.6954C53.8889 26.8955 53.6175 27.0079 53.3345 27.0079ZM46.4015 57.5999C46.1185 57.5999 45.8475 57.4879 45.6475 57.2869L42.9805 54.6209C42.7804 54.421 42.6679 54.1497 42.6678 53.8668C42.6677 53.5839 42.78 53.3126 42.98 53.1124C43.18 52.9123 43.4512 52.7999 43.7341 52.7998C44.017 52.7997 44.2884 52.912 44.4885 53.1119L47.1555 55.7789C47.3042 55.9282 47.4053 56.1182 47.4462 56.3248C47.4871 56.5315 47.4659 56.7457 47.3853 56.9403C47.3046 57.135 47.1682 57.3014 46.9931 57.4186C46.818 57.5358 46.6122 57.5986 46.4015 57.5989V57.5999ZM41.0685 57.5999C40.7855 57.5999 40.5135 57.4879 40.3135 57.2869L37.6475 54.6209C37.4474 54.421 37.3349 54.1497 37.3348 53.8668C37.3347 53.5839 37.447 53.3126 37.647 53.1124C37.847 52.9123 38.1182 52.7999 38.4011 52.7998C38.684 52.7997 38.9554 52.912 39.1555 53.1119L41.8225 55.7789C41.9712 55.9282 42.0723 56.1182 42.1132 56.3248C42.1541 56.5315 42.1329 56.7457 42.0523 56.9403C41.9716 57.135 41.8352 57.3014 41.6601 57.4186C41.485 57.5358 41.2792 57.5986 41.0685 57.5989V57.5999ZM35.7345 57.5999C35.4515 57.5999 35.1805 57.4879 34.9805 57.2869L32.3145 54.6209C32.1144 54.421 32.0019 54.1497 32.0018 53.8668C32.0017 53.5839 32.114 53.3126 32.314 53.1124C32.514 52.9123 32.7852 52.7999 33.0681 52.7998C33.351 52.7997 33.6224 52.912 33.8225 53.1119L36.4885 55.7789C36.6372 55.9282 36.7383 56.1182 36.7792 56.3248C36.8201 56.5315 36.7989 56.7457 36.7183 56.9403C36.6376 57.135 36.5012 57.3014 36.3261 57.4186C36.151 57.5358 35.9452 57.5986 35.7345 57.5989V57.5999ZM30.4015 57.5999C30.1185 57.5999 29.8475 57.4879 29.6475 57.2869L26.9805 54.6209C26.8814 54.5219 26.8028 54.4042 26.7492 54.2748C26.6956 54.1453 26.668 54.0066 26.668 53.8664C26.668 53.7263 26.6956 53.5876 26.7492 53.4581C26.8028 53.3287 26.8814 53.211 26.9805 53.1119C27.0796 53.0129 27.1972 52.9343 27.3267 52.8806C27.4561 52.827 27.5949 52.7994 27.735 52.7994C27.8751 52.7994 28.0139 52.827 28.1433 52.8806C28.2728 52.9343 28.3904 53.0129 28.4895 53.1119L31.1555 55.7789C31.3042 55.9282 31.4053 56.1182 31.4462 56.3248C31.4871 56.5315 31.4659 56.7457 31.3853 56.9403C31.3046 57.135 31.1682 57.3014 30.9931 57.4186C30.818 57.5358 30.6122 57.5986 30.4015 57.5989V57.5999ZM25.0685 57.5999C24.7855 57.5999 24.5135 57.4879 24.3135 57.2869L21.6475 54.6209C21.4474 54.421 21.3349 54.1497 21.3348 53.8668C21.3347 53.5839 21.447 53.3126 21.647 53.1124C21.847 52.9123 22.1182 52.7999 22.4011 52.7998C22.684 52.7997 22.9554 52.912 23.1555 53.1119L25.8225 55.7789C25.9712 55.9282 26.0723 56.1182 26.1132 56.3248C26.1541 56.5315 26.1329 56.7457 26.0523 56.9403C25.9716 57.135 25.8352 57.3014 25.6601 57.4186C25.485 57.5358 25.2792 57.5986 25.0685 57.5989V57.5999ZM19.7345 57.5999C19.4515 57.5999 19.1805 57.4879 18.9805 57.2869L16.3145 54.6209C16.1225 54.4193 16.017 54.1507 16.0203 53.8723C16.0237 53.5939 16.1357 53.3279 16.3325 53.131C16.5293 52.934 16.7953 52.8218 17.0736 52.8183C17.352 52.8147 17.6207 52.9201 17.8225 53.1119L20.4885 55.7789C20.6372 55.9282 20.7383 56.1182 20.7792 56.3248C20.8201 56.5315 20.7989 56.7457 20.7183 56.9403C20.6376 57.135 20.5012 57.3014 20.3261 57.4186C20.151 57.5358 19.9452 57.5986 19.7345 57.5989V57.5999ZM14.4015 57.5999C14.1185 57.5999 13.8475 57.4879 13.6475 57.2869L10.9805 54.6209C10.8814 54.5219 10.8028 54.4042 10.7492 54.2748C10.6956 54.1453 10.668 54.0066 10.668 53.8664C10.668 53.7263 10.6956 53.5876 10.7492 53.4581C10.8028 53.3287 10.8814 53.211 10.9805 53.1119C11.0796 53.0129 11.1972 52.9343 11.3267 52.8806C11.4561 52.827 11.5949 52.7994 11.735 52.7994C11.8751 52.7994 12.0139 52.827 12.1433 52.8806C12.2728 52.9343 12.3904 53.0129 12.4895 53.1119L15.1555 55.7789C15.3042 55.9282 15.4053 56.1182 15.4462 56.3248C15.4871 56.5315 15.4659 56.7457 15.3853 56.9403C15.3046 57.135 15.1682 57.3014 14.9931 57.4186C14.818 57.5358 14.6122 57.5986 14.4015 57.5989V57.5999Z" fill="#2176C7"/>
</g>
<defs>
<clipPath id="clip0_590:184">
<rect width="64" height="64" fill="white"/>
</clipPath>
</defs>
</svg>
