<svg width="64" height="64" viewBox="0 0 64 64" fill="none" xmlns="http://www.w3.org/2000/svg">
<path d="M29.3282 19.6086C28.2537 14.835 23.5125 11.8373 18.7388 12.9118C13.9656 13.9863 10.968 18.7276 12.0425 23.5008C13.117 28.2745 17.8582 31.2721 22.6314 30.1976C22.639 30.1964 22.6461 30.1938 22.6524 30.1926C27.3975 29.1467 30.3964 24.4525 29.3505 19.7075C29.3429 19.6743 29.3354 19.6406 29.3282 19.6086ZM20.6422 27.9342C17.1273 27.9532 14.2621 25.1178 14.2436 21.6025C14.2272 18.6023 16.3093 15.9978 19.2401 15.3527C19.7044 15.2471 20.1784 15.1925 20.6548 15.1912C24.1689 15.2833 26.9433 18.2065 26.8512 21.7219C26.7767 24.5707 24.8191 27.0212 22.0569 27.7235C21.6091 27.8266 21.1511 27.88 20.6918 27.8846L20.6422 27.9342Z" fill="#2176C7"/>
<path d="M61.3781 8.06879C60.9634 8.05155 60.5677 8.24247 60.3234 8.57765L56.2659 14.0742C55.3092 15.319 53.5412 15.5869 52.2581 14.6823C50.9813 13.7395 50.7092 11.9404 51.65 10.6623L55.4715 5.47569C55.8963 4.93697 55.8041 4.15769 55.2659 3.73336C55.0917 3.5971 54.8848 3.50879 54.6649 3.47767C48.7167 2.57686 43.1637 6.66921 42.2629 12.6191C42.0695 13.8984 42.1056 15.2025 42.3685 16.4692L40.9046 17.9336L39.9861 13.8883C39.8326 13.2209 39.166 12.8037 38.4986 12.9577H38.4973L34.961 13.7643C34.3478 12.6364 33.6022 11.5867 32.7396 10.6375L34.6754 7.57254C35.0413 6.99303 34.8701 6.22763 34.2906 5.86007L28.9551 2.49737C28.3756 2.13149 27.6102 2.30266 27.2431 2.88217L25.3073 5.95932C24.0965 5.59471 22.8471 5.37392 21.585 5.302L20.7906 1.76562C20.6371 1.09779 19.9705 0.681026 19.3031 0.834946H19.3019L13.0975 2.23705C12.4263 2.37205 11.9906 3.02726 12.1273 3.69846C12.1286 3.7035 12.1298 3.70855 12.1298 3.7136L12.9613 7.19994C11.8334 7.8131 10.7832 8.55873 9.83449 9.42127L6.76954 7.48549C6.19003 7.11961 5.42421 7.29077 5.05707 7.87029L1.69437 13.2058C1.3285 13.7853 1.49966 14.5507 2.07917 14.9178L5.14412 16.8536C4.77909 18.0648 4.5583 19.3142 4.48639 20.5763L0.962619 21.4695C0.295209 21.6235 -0.121974 22.2896 0.0319463 22.9574V22.9587L1.42144 29.1626C1.57536 29.83 2.24192 30.2472 2.90933 30.0933H2.9106L6.44698 29.2993C7.06014 30.426 7.80577 31.4756 8.66789 32.4261L6.73253 35.491C6.40745 36.0714 6.59964 36.8048 7.16654 37.1535L12.502 40.5162C12.6997 40.639 12.9276 40.7037 13.1598 40.7025H13.3709C13.6897 40.6293 13.9651 40.4329 14.1401 40.1566L16.0758 37.0916C17.2866 37.4562 18.536 37.677 19.7981 37.749L20.034 38.7915L17.1554 41.6701C16.4283 41.5213 15.6889 41.4468 14.9467 41.4468C8.92233 41.4557 4.04734 46.3458 4.05575 52.3697C4.05827 54.3202 4.58438 56.235 5.57855 57.9125C5.93181 58.4996 6.69384 58.6893 7.28093 58.3356C7.41971 58.2523 7.54125 58.1422 7.63797 58.0118L11.8943 52.2423C12.8519 50.9903 14.6292 50.722 15.9144 51.6342C17.1789 52.551 17.4767 54.3105 16.5847 55.5924L12.5273 61.1015C12.1362 61.6647 12.2762 62.4376 12.8397 62.8287C12.9987 62.9393 13.1812 63.01 13.3709 63.0373C13.9369 63.1265 14.5097 63.1723 15.0834 63.1736C17.9742 63.1824 20.7498 62.0347 22.7886 59.985C25.3796 57.3831 26.4937 53.6553 25.7543 50.0584L50.8438 24.9815C51.5709 25.1304 52.3102 25.2048 53.0521 25.2048C59.0764 25.1998 63.9552 20.3135 63.9502 14.2891C63.9489 12.3062 63.4068 10.362 62.3832 8.6647C62.1683 8.3106 61.7911 8.08603 61.3781 8.06879ZM15.9888 34.4115C15.4379 34.2117 14.8226 34.4237 14.5122 34.9199L12.7253 37.7616L9.48712 35.7392L11.2736 32.8975C11.5852 32.4013 11.5083 31.7549 11.0877 31.3465C9.9001 30.1913 8.93368 28.8287 8.23347 27.3261C7.98913 26.7916 7.40499 26.5022 6.83136 26.6313L3.56833 27.3761L2.72429 23.6535L5.98774 22.9091C6.56474 22.7787 6.97056 22.2602 6.95584 21.668C6.93944 20.009 7.225 18.36 7.79946 16.804C7.99922 16.2531 7.78685 15.6378 7.2906 15.3274L4.46158 13.5283L6.49661 10.2897L9.33783 12.0766C9.83197 12.3916 10.4784 12.3197 10.8888 11.9029C12.0441 10.7153 13.4066 9.74888 14.9092 9.04909C15.4391 8.80096 15.723 8.2164 15.5918 7.64698L14.847 4.38353L18.5697 3.53991L19.3141 6.80294C19.4444 7.37993 19.963 7.78576 20.5551 7.77104C22.2137 7.75842 23.8606 8.04524 25.4192 8.61466C25.9697 8.81442 26.5853 8.60246 26.8957 8.1058L28.6822 5.26458L31.9208 7.29961L30.1339 10.1408C29.8227 10.6371 29.8997 11.2835 30.3202 11.6918C31.5263 12.8471 32.51 14.2143 33.2237 15.7244C33.4718 16.2543 34.0564 16.5386 34.6258 16.407L37.8892 15.6626L38.8817 20.03L22.1805 36.682L22.0565 36.2228C21.9261 35.6458 21.4075 35.24 20.8154 35.2551C19.169 35.2665 17.5339 34.9809 15.9888 34.4115ZM59.0079 20.2537C57.4346 21.8443 55.2894 22.7379 53.0521 22.7354C52.2854 22.7354 51.5209 22.6311 50.7815 22.425C50.3396 22.2934 49.8618 22.4175 49.5405 22.7476L23.4834 48.8047C23.1532 49.126 23.0292 49.6042 23.1608 50.0458C23.9708 52.9766 23.1469 56.1168 21.0017 58.2721C19.6442 59.6385 17.8548 60.4934 15.9392 60.6919L18.5945 57.0937C20.349 54.7176 19.8452 51.3697 17.4691 49.6151C16.5481 48.9351 15.4341 48.5692 14.2889 48.5692C12.5912 48.5743 10.9956 49.3784 9.98295 50.7405L6.99285 54.798C5.62271 50.3511 8.11824 45.6359 12.5638 44.2662C14.1052 43.791 15.7503 43.7687 17.3038 44.2014C17.7454 44.333 18.2232 44.209 18.5449 43.8789L44.602 17.7595C44.9305 17.4382 45.0562 16.9604 44.9246 16.5189C44.1104 13.5881 44.9355 10.4461 47.0837 8.2921C48.4172 6.95097 50.1671 6.10231 52.047 5.8853L49.652 9.18576C47.8974 11.5631 48.4038 14.9132 50.7811 16.6677C53.1585 18.4223 56.5086 17.9159 58.2635 15.5386L61.0673 11.7292C62.0367 14.7319 61.2414 18.024 59.0079 20.2537Z" fill="#2176C7"/>
</svg>
