<svg width="64" height="64" viewBox="0 0 64 64" fill="none" xmlns="http://www.w3.org/2000/svg">
<g clip-path="url(#clip0_588:137)">
<path d="M46.6673 64C37.11 64 29.334 56.224 29.334 46.6667C29.334 37.1094 37.11 29.3334 46.6673 29.3334C56.2246 29.3334 64.0006 37.1094 64.0006 46.6667C64.0006 56.224 56.2246 64 46.6673 64ZM46.6673 32C38.582 32 32.0007 38.5787 32.0007 46.6667C32.0007 54.7547 38.582 61.3334 46.6673 61.3334C54.7526 61.3334 61.334 54.7547 61.334 46.6667C61.334 38.5787 54.7526 32 46.6673 32Z" fill="#2176C7"/>
<path d="M41.461 32.8667C40.9144 32.8667 40.4024 32.528 40.205 31.9814L29.4104 1.78136C29.1624 1.08802 29.5224 0.325356 30.2184 0.0773558C30.9197 -0.170644 31.6744 0.192022 31.9224 0.882689L42.717 31.0827C42.965 31.776 42.605 32.5387 41.909 32.7867C41.7597 32.8427 41.6104 32.8667 41.461 32.8667Z" fill="#2176C7"/>
<path d="M25.3352 53.3333C25.3139 53.3333 25.2899 53.3333 25.2685 53.3333C15.1805 52.824 7.82852 47.3387 2.79385 36.5653C2.48185 35.8987 2.76985 35.1067 3.43652 34.792C4.09518 34.488 4.89785 34.7653 5.20985 35.4373C9.78585 45.232 16.3912 50.2133 25.4018 50.6667C26.1352 50.704 26.7032 51.3307 26.6658 52.0667C26.6312 52.7787 26.0418 53.3333 25.3352 53.3333Z" fill="#2176C7"/>
<path d="M25.3336 46.6667C25.1976 46.6667 25.0616 46.648 24.9283 46.6027C15.6963 43.6533 13.6669 42.1307 8.22959 34.08C7.81626 33.4693 7.97626 32.64 8.58693 32.2293C9.19759 31.8213 10.0243 31.9787 10.4376 32.5893C15.5816 40.2027 17.0109 41.2747 25.7389 44.0667C26.4403 44.2907 26.8269 45.04 26.6029 45.7413C26.4216 46.3067 25.8989 46.6667 25.3336 46.6667Z" fill="#2176C7"/>
<path d="M25.3338 40C25.1712 40 25.0085 39.9706 24.8485 39.9093C18.9285 37.608 17.9365 36.584 13.6512 31.528C13.1738 30.968 13.2432 30.1253 13.8058 29.648C14.3685 29.1733 15.2085 29.2426 15.6832 29.8026C19.7205 34.5626 20.3418 35.2933 25.8192 37.4213C26.5045 37.688 26.8458 38.4613 26.5765 39.1466C26.3712 39.6773 25.8672 40 25.3338 40Z" fill="#2176C7"/>
</g>
<defs>
<clipPath id="clip0_588:137">
<rect width="64" height="64" fill="white"/>
</clipPath>
</defs>
</svg>
